<?xml version="1.0" standalone="no"?>
<!DOCTYPE svg PUBLIC "-//W3C//DTD SVG 20010904//EN"
 "http://www.w3.org/TR/2001/REC-SVG-20010904/DTD/svg10.dtd">
<svg version="1.0" xmlns="http://www.w3.org/2000/svg"
 width="1280.000000pt" height="790.000000pt" viewBox="0 0 1280.000000 790.000000"
 preserveAspectRatio="xMidYMid meet">
<metadata>
Created by potrace 1.15, written by Peter Selinger 2001-2017
</metadata>
<g transform="translate(0.000000,790.000000) scale(0.100000,-0.100000)"
fill="#000000" stroke="none">
<path d="M2382 7875 c-40 -14 -98 -39 -130 -57 -148 -82 -402 -280 -546 -426
l-69 -71 43 -48 c57 -64 101 -158 107 -231 11 -124 -105 -480 -302 -922 l-47
-104 18 -95 c21 -119 70 -341 77 -347 4 -5 162 258 267 444 100 178 181 368
230 539 19 66 25 76 87 130 91 80 284 291 360 393 80 108 146 234 175 336 18
63 22 105 23 209 0 120 -2 134 -25 180 -19 38 -36 55 -70 73 -57 28 -107 28
-198 -3z"/>
<path d="M10220 7878 c-34 -18 -51 -35 -70 -73 -23 -46 -25 -60 -25 -180 1
-104 5 -146 23 -209 29 -102 95 -228 175 -336 76 -102 269 -313 360 -393 62
-54 68 -64 87 -130 38 -131 93 -270 165 -412 77 -154 325 -579 332 -571 7 6
56 228 77 347 l18 95 -47 104 c-197 442 -313 798 -302 922 6 73 50 167 107
231 l43 48 -69 71 c-144 146 -398 344 -546 426 -75 42 -196 82 -245 82 -21 0
-59 -10 -83 -22z"/>
<path d="M1055 7482 c-99 -49 -149 -106 -248 -285 -36 -65 -94 -157 -130 -205
-148 -201 -242 -413 -316 -712 -24 -101 -33 -173 -41 -340 -7 -158 -11 -185
-39 -273 -18 -54 -57 -153 -88 -220 -97 -214 -140 -322 -164 -413 -23 -84 -24
-105 -23 -364 1 -307 9 -409 84 -1045 56 -479 66 -582 80 -824 15 -237 38
-338 110 -481 87 -173 191 -298 362 -435 501 -402 1071 -639 2265 -944 161
-41 288 -79 310 -92 122 -74 238 -173 316 -269 75 -93 106 -142 192 -300 37
-69 88 -160 113 -203 l45 -79 516 7 c284 4 814 10 1179 14 365 5 667 12 671
17 20 22 141 694 141 782 0 17 5 32 10 32 6 0 10 -15 10 -32 0 -88 121 -760
141 -782 4 -5 306 -12 671 -17 365 -4 895 -10 1179 -14 l516 -7 45 79 c25 43
76 134 113 203 143 263 234 375 415 506 105 76 127 85 403 155 1194 305 1764
542 2265 944 171 137 275 262 362 435 72 143 95 244 110 481 14 242 24 345 80
824 75 636 83 738 84 1045 1 259 0 280 -23 364 -24 91 -67 199 -164 413 -31
67 -70 166 -88 220 -28 88 -32 115 -39 273 -8 167 -17 239 -41 340 -74 299
-168 511 -316 712 -36 48 -94 140 -130 205 -100 181 -149 237 -251 285 -56 27
-70 30 -140 26 -99 -5 -158 -33 -238 -113 -66 -65 -112 -150 -134 -244 -15
-63 -8 -185 13 -251 8 -25 22 -83 31 -131 30 -162 80 -314 202 -605 l63 -151
-32 -89 -32 -89 1 -220 c0 -172 5 -249 21 -351 l21 -131 -26 -84 c-22 -74 -25
-103 -26 -244 -1 -88 3 -217 7 -286 l9 -127 87 0 c176 0 352 -73 483 -203 85
-83 121 -147 140 -248 14 -73 -6 -165 -51 -245 -30 -51 -464 -550 -747 -857
-205 -223 -466 -470 -481 -456 -3 3 -7 25 -10 49 -9 79 16 116 312 476 154
187 283 338 286 336 9 -5 36 27 48 56 5 14 114 151 241 305 243 295 234 281
214 353 -5 16 -2 22 9 22 9 0 16 12 19 30 5 36 2 40 -33 40 -23 0 -32 8 -48
38 -65 126 -179 165 -491 165 -198 1 -260 -8 -401 -58 -193 -67 -342 -174
-646 -463 -259 -245 -337 -315 -461 -410 -201 -154 -492 -311 -724 -391 -231
-79 -439 -122 -998 -206 -246 -37 -453 -79 -626 -126 -387 -105 -761 -379
-978 -717 -65 -99 -155 -289 -191 -399 -16 -51 -32 -93 -35 -93 -3 0 -18 40
-33 89 -56 174 -176 397 -292 540 -58 72 -204 217 -275 273 -82 64 -216 147
-336 207 -180 90 -457 160 -894 226 -559 84 -767 127 -998 206 -232 80 -523
237 -724 391 -124 95 -202 165 -461 410 -304 289 -453 396 -646 463 -141 50
-203 59 -401 58 -312 0 -426 -39 -491 -165 -16 -30 -25 -38 -48 -38 -35 0 -38
-4 -33 -40 3 -18 10 -30 19 -30 11 0 14 -6 9 -22 -20 -72 -29 -58 214 -353
127 -154 236 -291 241 -305 12 -29 39 -61 48 -56 3 2 132 -149 286 -336 296
-360 321 -397 312 -476 -3 -24 -7 -46 -10 -49 -15 -14 -276 233 -481 456 -283
307 -717 806 -747 857 -97 170 -67 340 89 493 131 130 307 203 483 203 l87 0
9 127 c4 69 8 198 7 286 -1 141 -4 170 -26 244 l-26 84 21 131 c16 102 21 179
21 351 l1 220 -32 89 -32 89 63 151 c122 291 172 443 202 605 9 48 23 106 31
131 55 170 7 368 -121 495 -82 81 -139 108 -241 113 -72 3 -86 0 -140 -26z"/>
</g>
</svg>
